<svg width="467" height="399" viewBox="0 0 467 399" fill="none" xmlns="http://www.w3.org/2000/svg">
<g filter="url(#filter0_i_11_38)">
<path d="M215 145.883C215 140.36 219.477 135.883 225 135.883H243C248.523 135.883 253 140.36 253 145.883V269.883C253 275.406 248.523 279.883 243 279.883H225C219.477 279.883 215 275.405 215 269.883V145.883Z" fill="#64BD5F"/>
<path d="M226.224 1.88285C231.104 -0.627617 236.896 -0.627614 241.776 1.88285L401.927 84.2655C417.786 92.4231 411.984 116.383 394.151 116.383H73.849C56.0155 116.383 50.2143 92.4231 66.0726 84.2655L226.224 1.88285Z" fill="#64BD5F"/>
<path d="M95 145.883C95 140.36 99.4772 135.883 105 135.883H123C128.523 135.883 133 140.36 133 145.883V269.883C133 275.406 128.523 279.883 123 279.883H105C99.4772 279.883 95 275.405 95 269.883V145.883Z" fill="#64BD5F"/>
<path d="M335 145.883C335 140.36 339.477 135.883 345 135.883H363C368.523 135.883 373 140.36 373 145.883V269.883C373 275.406 368.523 279.883 363 279.883H345C339.477 279.883 335 275.405 335 269.883V145.883Z" fill="#64BD5F"/>
<path d="M0 351.883C0 349.121 2.23858 346.883 5 346.883H462C464.761 346.883 467 349.121 467 351.883V393.883C467 396.644 464.761 398.883 462 398.883H5.00001C2.23859 398.883 0 396.644 0 393.883V351.883Z" fill="#64BD5F"/>
<path d="M62 298.883C62 296.121 64.2386 293.883 67 293.883H400C402.761 293.883 405 296.121 405 298.883V330.883C405 333.644 402.761 335.883 400 335.883H67C64.2386 335.883 62 333.644 62 330.883V298.883Z" fill="#64BD5F"/>
<path d="M229.732 21.2286L237.331 32.2082L230.868 34.5394L229.732 21.2286Z" fill="#F5F5F5"/>
<path d="M247.606 21.2411L246.425 34.5481L239.969 32.1951L247.606 21.2411Z" fill="#F5F5F5"/>
<path d="M216.876 32.3822L229.858 35.4577L226.609 41.5191L216.876 32.3822Z" fill="#F5F5F5"/>
<path d="M224.91 46.571C224.91 44.9 226.275 43.5511 227.946 43.5713L232.486 43.6261C234.143 43.6461 235.47 45.0053 235.45 46.6621L235.123 73.796C235.103 75.4386 233.766 76.7598 232.123 76.7598H227.91C226.253 76.7598 224.91 75.4166 224.91 73.7597V46.571Z" fill="#F5F5F5"/>
<path d="M256 45.8826C256 54.1669 249.06 60.8826 240.5 60.8826C231.94 60.8826 225 54.1669 225 45.8826C225 37.5984 231.94 30.8826 240.5 30.8826C249.06 30.8826 256 37.5984 256 45.8826Z" fill="#F5F5F5"/>
</g>
<defs>
<filter id="filter0_i_11_38" x="0" y="0" width="467" height="402.883" filterUnits="userSpaceOnUse" color-interpolation-filters="sRGB">
<feFlood flood-opacity="0" result="BackgroundImageFix"/>
<feBlend mode="normal" in="SourceGraphic" in2="BackgroundImageFix" result="shape"/>
<feColorMatrix in="SourceAlpha" type="matrix" values="0 0 0 0 0 0 0 0 0 0 0 0 0 0 0 0 0 0 127 0" result="hardAlpha"/>
<feOffset dy="4"/>
<feGaussianBlur stdDeviation="2"/>
<feComposite in2="hardAlpha" operator="arithmetic" k2="-1" k3="1"/>
<feColorMatrix type="matrix" values="0 0 0 0 0 0 0 0 0 0 0 0 0 0 0 0 0 0 0.25 0"/>
<feBlend mode="normal" in2="shape" result="effect1_innerShadow_11_38"/>
</filter>
</defs>
</svg>
