<svg width="324" height="81" viewBox="0 0 324 81" fill="none" xmlns="http://www.w3.org/2000/svg">
<path d="M20.5344 0L31.7531 15.523L22.2118 18.8188L20.5344 0Z" fill="#64BD5F"/>
<path d="M48.6887 0.0139552L46.9452 18.8273L37.4156 15.5006L48.6887 0.0139552Z" fill="#64BD5F"/>
<path d="M0 17.0198L19.164 21.368L14.367 29.9375L0 17.0198Z" fill="#64BD5F"/>
<path d="M13.3349 40.8018C13.3349 36.4793 16.8679 32.987 21.1901 33.037C25.4743 33.0865 28.9037 36.5996 28.8498 40.8837L28.4532 72.4478C28.4012 76.5883 25.0276 79.9197 20.8867 79.9197C16.7148 79.9197 13.3349 76.5399 13.3349 72.368V40.8018Z" fill="#64BD5F"/>
<path d="M59.2304 36.0933C59.2304 47.6913 48.933 57.0933 36.2304 57.0933C23.5279 57.0933 13.2304 47.6913 13.2304 36.0933C13.2304 24.4953 23.5279 15.0933 36.2304 15.0933C48.933 15.0933 59.2304 24.4953 59.2304 36.0933Z" fill="#64BD5F"/>
<path d="M53.2304 36.0933C53.2304 42.1684 47.8578 47.0933 41.2304 47.0933C34.603 47.0933 29.2304 42.1684 29.2304 36.0933C29.2304 30.0182 34.603 25.0933 41.2304 25.0933C47.8578 25.0933 53.2304 30.0182 53.2304 36.0933Z" fill="white" fill-opacity="0.94"/>
<path d="M48.2304 34.0933C48.2304 35.7502 46.6634 37.0933 44.7304 37.0933C42.7974 37.0933 41.2304 35.7502 41.2304 34.0933C41.2304 32.4365 42.7974 31.0933 44.7304 31.0933C46.6634 31.0933 48.2304 32.4365 48.2304 34.0933Z" fill="#64BD5F"/>
<path d="M46.6 80V73.6H45.96V66.2C45.96 64.7333 45.5733 63.6267 44.8 62.88C44.0533 62.1333 42.9467 61.76 41.48 61.76C40.6533 61.76 39.8 61.7733 38.92 61.8C38.04 61.8267 37.2 61.8533 36.4 61.88C35.6 61.9067 34.9067 61.9467 34.32 62V58.64C34.9067 58.5867 35.52 58.5467 36.16 58.52C36.8267 58.4667 37.5067 58.44 38.2 58.44C38.8933 58.4133 39.56 58.4 40.2 58.4C42.3867 58.4 44.1733 58.6667 45.56 59.2C46.9467 59.7067 47.9733 60.5467 48.64 61.72C49.3067 62.8933 49.64 64.48 49.64 66.48V80H46.6ZM39.6 80.56C38 80.56 36.6133 80.2933 35.44 79.76C34.2933 79.2 33.4 78.4 32.76 77.36C32.1467 76.32 31.84 75.0667 31.84 73.6C31.84 72.08 32.1733 70.8133 32.84 69.8C33.5333 68.7867 34.5333 68.0267 35.84 67.52C37.1467 66.9867 38.72 66.72 40.56 66.72H46.36V69.6H40.4C38.8533 69.6 37.6667 69.9733 36.84 70.72C36.0133 71.4667 35.6 72.4267 35.6 73.6C35.6 74.7733 36.0133 75.72 36.84 76.44C37.6667 77.16 38.8533 77.52 40.4 77.52C41.3067 77.52 42.1733 77.36 43 77.04C43.8267 76.6933 44.5067 76.1333 45.04 75.36C45.6 74.56 45.9067 73.4667 45.96 72.08L47 73.6C46.8667 75.12 46.4933 76.4 45.88 77.44C45.2933 78.4533 44.4667 79.2267 43.4 79.76C42.36 80.2933 41.0933 80.56 39.6 80.56ZM71.4078 80L63.3678 70.04H59.8478L69.6478 58.64H73.6878L64.8078 68.92L65.0878 66.88L75.8478 80H71.4078ZM56.6878 80V50.8H60.5278V80H56.6878ZM88.9888 80.72C87.1221 80.72 85.4821 80.4 84.0688 79.76C82.6554 79.12 81.4554 78.28 80.4688 77.24C79.5088 76.1733 78.7754 74.9867 78.2688 73.68C77.7888 72.3733 77.5488 71.04 77.5488 69.68V68.96C77.5488 67.6 77.8021 66.2667 78.3088 64.96C78.8154 63.6267 79.5621 62.44 80.5488 61.4C81.5354 60.3333 82.7354 59.4933 84.1488 58.88C85.5621 58.24 87.1754 57.92 88.9888 57.92C90.8021 57.92 92.4154 58.24 93.8288 58.88C95.2421 59.4933 96.4421 60.3333 97.4288 61.4C98.4154 62.44 99.1621 63.6267 99.6688 64.96C100.175 66.2667 100.429 67.6 100.429 68.96V69.68C100.429 71.04 100.175 72.3733 99.6688 73.68C99.1888 74.9867 98.4554 76.1733 97.4688 77.24C96.5088 78.28 95.3221 79.12 93.9088 79.76C92.4954 80.4 90.8554 80.72 88.9888 80.72ZM88.9888 77.28C90.5888 77.28 91.9488 76.9333 93.0688 76.24C94.2154 75.52 95.0821 74.56 95.6687 73.36C96.2821 72.16 96.5887 70.8133 96.5887 69.32C96.5887 67.8 96.2821 66.44 95.6687 65.24C95.0554 64.04 94.1754 63.0933 93.0288 62.4C91.9088 61.7067 90.5621 61.36 88.9888 61.36C87.4421 61.36 86.0954 61.7067 84.9488 62.4C83.8021 63.0933 82.9221 64.04 82.3088 65.24C81.6954 66.44 81.3888 67.8 81.3888 69.32C81.3888 70.8133 81.6821 72.16 82.2688 73.36C82.8821 74.56 83.7488 75.52 84.8688 76.24C86.0154 76.9333 87.3888 77.28 88.9888 77.28ZM113.18 80.64C110.38 80.64 108.207 80.04 106.66 78.84C105.14 77.64 104.353 76 104.3 73.92H107.9C107.953 74.7467 108.367 75.5333 109.14 76.28C109.94 77 111.287 77.36 113.18 77.36C114.887 77.36 116.193 77.0267 117.1 76.36C118.007 75.6667 118.46 74.8267 118.46 73.84C118.46 72.96 118.127 72.28 117.46 71.8C116.793 71.2933 115.713 70.96 114.22 70.8L111.9 70.56C109.873 70.3467 108.22 69.7467 106.94 68.76C105.66 67.7467 105.02 66.3333 105.02 64.52C105.02 63.16 105.367 62 106.06 61.04C106.753 60.0533 107.713 59.3067 108.94 58.8C110.167 58.2667 111.58 58 113.18 58C115.58 58 117.527 58.5333 119.02 59.6C120.513 60.6667 121.287 62.2533 121.34 64.36H117.74C117.713 63.5067 117.313 62.7867 116.54 62.2C115.793 61.5867 114.673 61.28 113.18 61.28C111.687 61.28 110.553 61.5867 109.78 62.2C109.007 62.8133 108.62 63.5867 108.62 64.52C108.62 65.32 108.887 65.96 109.42 66.44C109.98 66.92 110.887 67.2267 112.14 67.36L114.46 67.6C116.753 67.84 118.593 68.48 119.98 69.52C121.367 70.5333 122.06 71.9733 122.06 73.84C122.06 75.1733 121.673 76.36 120.9 77.4C120.153 78.4133 119.113 79.2133 117.78 79.8C116.447 80.36 114.913 80.64 113.18 80.64ZM135.945 80.24C134.345 80.24 132.959 80.0133 131.785 79.56C130.639 79.1067 129.745 78.3333 129.105 77.24C128.492 76.12 128.185 74.6133 128.185 72.72V52.16H131.865V73.2C131.865 74.3467 132.172 75.24 132.785 75.88C133.425 76.4933 134.319 76.8 135.465 76.8H139.225V80.24H135.945ZM124.505 61.52V58.64H139.225V61.52H124.505ZM145.697 80V58.64H149.537V80H145.697ZM142.417 61.68V58.64H149.537V61.68H142.417ZM146.777 55.2C145.923 55.2 145.283 54.9733 144.857 54.52C144.457 54.0667 144.257 53.4933 144.257 52.8C144.257 52.1067 144.457 51.5333 144.857 51.08C145.283 50.6267 145.923 50.4 146.777 50.4C147.63 50.4 148.257 50.6267 148.657 51.08C149.083 51.5333 149.297 52.1067 149.297 52.8C149.297 53.4933 149.083 54.0667 148.657 54.52C148.257 54.9733 147.63 55.2 146.777 55.2ZM160.641 80.16V76.72H168.801C170.375 76.72 171.588 76.28 172.441 75.4C173.321 74.4933 173.761 73.2933 173.761 71.8C173.761 70.28 173.335 69.0933 172.481 68.24C171.628 67.36 170.401 66.92 168.801 66.92H160.641V64.36H168.241C170.108 64.36 171.748 64.5867 173.161 65.04C174.601 65.4933 175.721 66.2533 176.521 67.32C177.348 68.36 177.761 69.7867 177.761 71.6V72.16C177.761 73.8667 177.415 75.32 176.721 76.52C176.028 77.6933 174.975 78.6 173.561 79.24C172.148 79.8533 170.375 80.16 168.241 80.16H160.641ZM157.521 80.16V50.64H161.441V80.16H157.521ZM160.641 66.2V63.64H167.721C169.375 63.64 170.588 63.2 171.361 62.32C172.161 61.4133 172.561 60.2667 172.561 58.88C172.561 57.4667 172.161 56.32 171.361 55.44C170.588 54.5333 169.375 54.08 167.721 54.08H160.641V50.64H167.041C170.241 50.64 172.628 51.32 174.201 52.68C175.775 54.0133 176.561 55.9467 176.561 58.48V59.04C176.561 60.8267 176.161 62.2533 175.361 63.32C174.561 64.36 173.441 65.1067 172.001 65.56C170.588 65.9867 168.935 66.2 167.041 66.2H160.641ZM197.069 80V73.6H196.429V66.2C196.429 64.7333 196.042 63.6267 195.269 62.88C194.522 62.1333 193.415 61.76 191.949 61.76C191.122 61.76 190.269 61.7733 189.389 61.8C188.509 61.8267 187.669 61.8533 186.869 61.88C186.069 61.9067 185.375 61.9467 184.789 62V58.64C185.375 58.5867 185.989 58.5467 186.629 58.52C187.295 58.4667 187.975 58.44 188.669 58.44C189.362 58.4133 190.029 58.4 190.669 58.4C192.855 58.4 194.642 58.6667 196.029 59.2C197.415 59.7067 198.442 60.5467 199.109 61.72C199.775 62.8933 200.109 64.48 200.109 66.48V80H197.069ZM190.069 80.56C188.469 80.56 187.082 80.2933 185.909 79.76C184.762 79.2 183.869 78.4 183.229 77.36C182.615 76.32 182.309 75.0667 182.309 73.6C182.309 72.08 182.642 70.8133 183.309 69.8C184.002 68.7867 185.002 68.0267 186.309 67.52C187.615 66.9867 189.189 66.72 191.029 66.72H196.829V69.6H190.869C189.322 69.6 188.135 69.9733 187.309 70.72C186.482 71.4667 186.069 72.4267 186.069 73.6C186.069 74.7733 186.482 75.72 187.309 76.44C188.135 77.16 189.322 77.52 190.869 77.52C191.775 77.52 192.642 77.36 193.469 77.04C194.295 76.6933 194.975 76.1333 195.509 75.36C196.069 74.56 196.375 73.4667 196.429 72.08L197.469 73.6C197.335 75.12 196.962 76.4 196.349 77.44C195.762 78.4533 194.935 79.2267 193.869 79.76C192.829 80.2933 191.562 80.56 190.069 80.56ZM207.157 80V58.64H210.197V67.8H209.717C209.717 65.6933 209.997 63.92 210.557 62.48C211.143 61.0133 212.023 59.9067 213.197 59.16C214.37 58.3867 215.85 58 217.637 58H217.797C220.49 58 222.477 58.84 223.757 60.52C225.063 62.2 225.717 64.6267 225.717 67.8V80H221.877V67C221.877 65.3467 221.41 64.0267 220.477 63.04C219.543 62.0267 218.263 61.52 216.637 61.52C214.957 61.52 213.597 62.04 212.557 63.08C211.517 64.12 210.997 65.5067 210.997 67.24V80H207.157ZM247.463 80L239.423 70.04H235.903L245.703 58.64H249.743L240.863 68.92L241.143 66.88L251.903 80H247.463ZM232.743 80V50.8H236.583V80H232.743Z" fill="#64BD5F"/>
</svg>
