<svg width="287" height="71" viewBox="0 0 287 71" fill="none" xmlns="http://www.w3.org/2000/svg">
<path d="M18.1894 0L28.1269 13.7905L19.6752 16.7185L18.1894 0Z" fill="#64BD5F"/>
<path d="M43.1286 0.0123977L41.5842 16.726L33.1428 13.7706L43.1286 0.0123977Z" fill="#64BD5F"/>
<path d="M0 15.1202L16.9755 18.9831L12.7263 26.5962L0 15.1202Z" fill="#64BD5F"/>
<path d="M11.8121 36.248C11.8121 32.4079 14.9416 29.3054 18.7703 29.3498C22.5652 29.3938 25.6029 32.5148 25.5552 36.3207L25.2039 64.362C25.1578 68.0404 22.1695 71 18.5015 71C14.806 71 11.8121 67.9974 11.8121 64.2912V36.248Z" fill="#64BD5F"/>
<path d="M52.4665 32.065C52.4665 42.3686 43.3449 50.7212 32.093 50.7212C20.841 50.7212 11.7195 42.3686 11.7195 32.065C11.7195 21.7615 20.841 13.4088 32.093 13.4088C43.3449 13.4088 52.4665 21.7615 52.4665 32.065Z" fill="#64BD5F"/>
<path d="M47.1516 32.065C47.1516 37.4621 42.3926 41.8373 36.522 41.8373C30.6514 41.8373 25.8924 37.4621 25.8924 32.065C25.8924 26.6679 30.6514 22.2927 36.522 22.2927C42.3926 22.2927 47.1516 26.6679 47.1516 32.065Z" fill="white" fill-opacity="0.94"/>
<path d="M42.7226 30.2882C42.7226 31.7602 41.3346 32.9534 39.6223 32.9534C37.9101 32.9534 36.522 31.7602 36.522 30.2882C36.522 28.8163 37.9101 27.623 39.6223 27.623C41.3346 27.623 42.7226 28.8163 42.7226 30.2882Z" fill="#64BD5F"/>
</svg>
